<?xml version="1.0" encoding="utf-8"?>
<!-- Generator: Adobe Illustrator 15.1.0, SVG Export Plug-In . SVG Version: 6.00 Build 0)  -->
<!DOCTYPE svg PUBLIC "-//W3C//DTD SVG 1.1//EN" "http://www.w3.org/Graphics/SVG/1.1/DTD/svg11.dtd">
<svg version="1.1" id="IDEAL_x26__x5F_" xmlns="http://www.w3.org/2000/svg" xmlns:xlink="http://www.w3.org/1999/xlink" x="0px"
	 y="0px" width="512px" height="165px" viewBox="0 0 512 165" enable-background="new 0 0 512 165" xml:space="preserve">
<rect id="BG" x="-0.5" fill="#EC1B23" width="514" height="165"/>
<rect id="I" x="30" y="20" fill="#FFFFFF" width="31" height="104"/>
<path id="D" fill="#FFFFFF" d="M113,101h13.4c23.4,0,29.7-14.5,29.7-29.3c0-5.9-1.5-13.3-6-19.2c-3.6-4.6-10-9.6-23.9-9.6H113V101z
	 M81,20h40.7c13.8,0,38.6-0.5,54.5,18.9c8.5,9.9,11.3,21.3,11.3,32.7c0,28.5-16.6,52.4-63.3,52.4H81V20z"/>
<polygon id="E" fill="#FFFFFF" points="206,20 274,20 274,43 236,43 236,59 273,59 273,82 236,82 236,100 274,100 274,123 206,123 
	"/>
<path id="A" fill="#FFFFFF" d="M332.9,88H358.6L346,52h-0.2l-0.3,0.4L332.9,88z M324.3,109l-6.5,15h-33.7L333.4,20H358.1L406.9,124
	h-34l-6-15H324.3z"/>
<polygon id="L" fill="#FFFFFF" points="421,20 452,20 452,100 488,100 488,123 421,123 "/>
<polyline id="underline" fill="none" stroke="#FFF100" stroke-width="2" stroke-linecap="round" stroke-linejoin="round" stroke-miterlimit="10" points="
	60,154 491,154 491,154 "/>
<path id="esperluette_x5F_bd" fill="#EC1B23" d="M58.8,152.9l-5.5-6.2c2.5-3.7,4-8.101,4.2-13c0-0.7-0.2-1.4-0.7-1.9
	S55.7,131,55,131h-6.7c-1.3,0-2.4,1.1-2.5,2.5c0,1.2-0.2,2.8-0.5,4.2l-2.6-2.8c3.3-2.301,6.1-5.4,6.1-10.7c0-7.8-6.8-11.2-13.6-11.2
	c-6.9,0-14.2,4-14.2,11.3c0,4,1.6,6.5,3.6,8.601c-4.3,2.699-6.4,6.3-6.4,11.199c0,8.2,6.5,13.7,16.2,13.7c3.7,0,7.3-1.1,10.1-3
	l1,1.3c0.5,0.601,1.2,1,2,1H57c1,0,1.9-0.6,2.3-1.5C59.6,154.6,59.5,153.6,58.8,152.9z"/>
<path id="esperluette" fill="#FFF100" d="M39.3,124.7c0-2.7-2-4-4.3-4c-2.2,0-4.4,1.3-4.4,4.1c0,2.2,2.2,4,3.6,5.5
	C36.2,129.3,39.3,127,39.3,124.7z M32.6,137.6c-2.5,1.301-4.7,3.101-4.7,6.2c0,3.4,2.9,5.7,6.5,5.7c2.6,0,5-0.7,6.7-2.3L32.6,137.6z
	 M45.7,142.2c1.9-2.2,2.3-5.2,2.4-8.2h6.7c-0.2,5-1.8,9.5-4.9,13.2l6.9,7.8h-9.5l-2.6-3.7c-2.7,2.8-6.7,4-10.5,4
	c-7.6,0-13.7-4-13.7-11.3c0-4.6,2-8,8.1-10.6c-3-2.801-5.4-4.9-5.4-9.301c0-5.899,6.3-8.8,11.7-8.8S46,117.8,46,124
	c0,5.3-3.3,7.9-7.4,10.3L45.7,142.2z"/>
<path fill="#FFF100" d="M80,140h1.1c2.2,0,4.2-0.3,4.2-2c0-1.6-1.9-2-4.2-2H80V140z M75,134h5.8c4.8,0,9.2,1.1,9.2,4.4
	c0,3.199-3.8,4.6-8.5,4.6H80v5h-5V134z"/>
<path fill="#FFF100" d="M136,140h1.4c2.2,0,4.7-0.3,4.7-2.1c0-1.7-2.5-1.9-4.7-1.9H136V140z M131,134h5.3c4.8,0,10.4-0.1,10.4,3.8
	c0,1.601-1.6,3-4.6,3.2l0,0c1,0.1,2,0.9,2.4,1.5l3.6,5.5h-4.9l-2.7-4.5c-0.6-1-1.2-1.5-3.1-1.5H136v6h-5V134z"/>
<path fill="#FFF100" d="M198.7,137L198.7,137l-3.3,6h6.5L198.7,137z M196.2,134h5l8.7,14H205l-1.9-3h-9l-1.9,3h-4.6L196.2,134z"/>
<polygon fill="#FFF100" points="253,136 247,136 247,134 264,134 264,136 257,136 257,148 253,148 "/>
<rect x="305" y="134" fill="#FFF100" width="4" height="14"/>
<path fill="#FFF100" d="M362.4,145.9c4.5,0,6.199-2.5,6.199-5c0-2.4-1.8-4.9-6.199-4.9c-4.4,0-6.2,2.5-6.2,4.9
	C356.2,143.4,357.9,145.9,362.4,145.9z M367.4,150l-3.9-2.2c-0.3,0-0.7,0.2-1.1,0.2c-7.101,0-10.801-2.9-10.801-7.1
	c0-4.2,3.801-7.101,10.801-7.101c6.899,0,10.8,3,10.8,7.101c0,3-1.9,5.1-5.601,6.199l5,2.9H367.4z"/>
<path fill="#FFF100" d="M416,134h4v8c0,2.4,1.1,3.9,4.5,3.9s4.5-1.5,4.5-3.9v-8h5v8.9c0,3.699-3.3,5.199-9,5.199s-9-1.5-9-5.199V134
	z"/>
<polygon fill="#FFF100" points="478,134 491,134 491,136 482,136 482,140 490,140 490,142 482,142 482,146 491,146 491,148 478,148 
	"/>
</svg>
