<svg xmlns="http://www.w3.org/2000/svg" xmlns:xlink="http://www.w3.org/1999/xlink" version="1.1" x="0px" y="0px" viewBox="0 0 16 20" style="enable-background:new 0 0 16 16;" xml:space="preserve"><g><path d="M8,7C7.449,7,7,7.449,7,8s0.449,1,1,1s1-0.449,1-1S8.551,7,8,7z M8,8L8,8L8,8L8,8L8,8z"/><path d="M15,8L15,8c-0.555-0.941-1.456-1.604-2.487-1.869c0.541-0.917,0.71-2.023,0.437-3.08l0,0h0l0,0l0,0   c-1.057-0.273-2.163-0.105-3.08,0.437C9.604,2.456,8.941,1.554,8,1v0l0,0l0,0v0C7.059,1.554,6.396,2.456,6.131,3.487   C5.214,2.946,4.108,2.777,3.05,3.05l0,0v0l0,0l0,0c-0.273,1.057-0.105,2.163,0.437,3.08C2.456,6.396,1.554,7.059,1,8h0l0,0l0,0h0   c0.554,0.941,1.456,1.604,2.487,1.869c-0.541,0.917-0.71,2.023-0.437,3.08l0,0h0l0,0l0,0c1.057,0.273,2.163,0.105,3.08-0.436   C6.396,13.544,7.059,14.445,8,15v0l0,0l0,0v0c0.941-0.554,1.604-1.456,1.869-2.487c0.917,0.541,2.023,0.71,3.08,0.437l0,0l0,0l0,0   l0,0c0.273-1.057,0.105-2.163-0.437-3.08C13.544,9.604,14.445,8.941,15,8L15,8L15,8L15,8z M8,10c-1.103,0-2-0.897-2-2   c0-1.103,0.897-2,2-2c1.103,0,2,0.897,2,2C10,9.103,9.103,10,8,10z"/></g><text x="0" y="31" fill="#000000" font-size="5px" font-weight="bold" font-family="'Helvetica Neue', Helvetica, Arial-Unicode, Arial, Sans-serif">Created by Icon Solid</text><text x="0" y="36" fill="#000000" font-size="5px" font-weight="bold" font-family="'Helvetica Neue', Helvetica, Arial-Unicode, Arial, Sans-serif">from the Noun Project</text></svg>