<svg xmlns="http://www.w3.org/2000/svg" xmlns:xlink="http://www.w3.org/1999/xlink" version="1.1" x="0px" y="0px" viewBox="0 0 52 65" enable-background="new 0 0 52 52" xml:space="preserve"><g><path d="M48.7499199,23.7099609c-2.5800171-1.9099731-5.5800171-3.0599976-8.75-3.3699951   c1.6599731-1.9699707,2.8599854-4.2600098,3.5299683-6.75c0.3400269-1.2799683,0.0700073-2.6199951-0.7299805-3.6699829   c-0.960022-1.25-2.539978-1.8400269-4.0899658-1.5200195C36.7699394,8.8099976,34.159893,9.75,31.8199272,11.8699951   c-0.3099976-3.0900269-1.4299927-6.0700073-3.2399902-8.5800171C27.9999199,2.4799805,27.0599174,2,26.0599174,2   s-1.9099731,0.4599609-2.5,1.2600098c-1.75,2.3899536-2.8599854,5.2099609-3.2399902,8.1599731   c-2.3300171-2.460022-5.1500244-3.3599854-7.3200073-3.6599731c-1.460022-0.2000122-2.8499756,0.3799438-3.7600098,1.5199585   c-0.789978,0.9899902-1.0800171,2.25-0.7999878,3.4700317c0.6099854,2.7000122,1.8400269,5.2000122,3.5999756,7.3299561   c-3.1699829,0.2600098-6.1699829,1.3500366-8.75,3.2000122c-0.8099976,0.5800171-1.2799683,1.4899902-1.2899779,2.4899902   c0,1.0100098,0.4500121,1.9300537,1.2600096,2.5200195c2.5800171,1.9100342,5.5700073,3.0599976,8.75,3.3699951   c-2.039978,2.4299927-3.4000244,5.3699951-3.9000244,8.4899902c-0.1399536,0.9000244,0.1100464,1.8099976,0.7000122,2.5   c0.6900024,0.8099976,1.7399902,1.2200317,2.8200073,1.0599976c3.1199951-0.4599609,6.0900269-1.7799683,8.539978-3.789978   c0.2800293,3.1599731,1.4000244,6.2199707,3.25,8.7999878C23.9999199,49.5199585,24.9399223,50,25.9399223,50   s1.9099731-0.460022,2.5-1.2600098c1.8599854-2.5300293,3-5.5599976,3.2999878-8.710022   c2.4299927,2.0499878,5.3699951,3.4200439,8.4800415,3.9500122c0.1699829,0.0300293,0.3499756,0.039978,0.5199585,0.039978   c0.9000244,0,1.75-0.3999634,2.3499756-1.0899658c0.5900269-0.6900024,0.8500366-1.6000366,0.710022-2.4899902   c-0.4899902-3.1100464-1.8300171-6.0700073-3.8399658-8.5200195c3.1699829-0.2600098,6.1699829-1.3499756,8.749939-3.1900024   c0.8099976-0.5900269,1.2800293-1.5,1.2900391-2.5C50.0099297,25.2199707,49.5499077,24.2999878,48.7499199,23.7099609z    M26.0699272,38.2600098h-0.1099854c-6.7600098-0.0599976-12.2399902-5.6100464-12.2200317-12.3700562   c0.0200195-6.6999512,5.4899902-12.1499634,12.1900024-12.1499634h0.1199951   c6.7600098,0.0599976,12.2300415,5.6099854,12.210022,12.3699951   C38.2399101,32.8099976,32.7699394,38.2600098,26.0699272,38.2600098z"/></g><text x="0" y="67" fill="#000000" font-size="5px" font-weight="bold" font-family="'Helvetica Neue', Helvetica, Arial-Unicode, Arial, Sans-serif">Created by DinosoftLab</text><text x="0" y="72" fill="#000000" font-size="5px" font-weight="bold" font-family="'Helvetica Neue', Helvetica, Arial-Unicode, Arial, Sans-serif">from the Noun Project</text></svg>